<svg class="animated" id="freepik_stories-fire-ball" xmlns="http://www.w3.org/2000/svg" viewBox="0 0 500 500" version="1.1" xmlns:xlink="http://www.w3.org/1999/xlink" xmlns:svgjs="http://svgjs.com/svgjs"><style>svg#freepik_stories-fire-ball:not(.animated) .animable {opacity: 0;}svg#freepik_stories-fire-ball.animated #freepik--fire-ball-3--inject-12 {animation: 1.1s 1 forwards cubic-bezier(.36,-0.01,.5,1.38) slideDown,3s Infinite  linear floating;animation-delay: 0s,1.1s;}svg#freepik_stories-fire-ball.animated #freepik--fire-ball-2--inject-12 {animation: 4s 1 forwards cubic-bezier(.36,-0.01,.5,1.38) slideDown,3s Infinite  linear floating;animation-delay: 0s,4s;}svg#freepik_stories-fire-ball.animated #ely2xq16r0f2 {animation: 3s 1 forwards cubic-bezier(.36,-0.01,.5,1.38) slideDown;animation-delay: 0s;}svg#freepik_stories-fire-ball.animated #el158k2yjabe9 {animation: 3s 1 forwards cubic-bezier(.36,-0.01,.5,1.38) slideDown;animation-delay: 0.08571428571428572s;opacity: 0}svg#freepik_stories-fire-ball.animated #el3dh0jn1m15x {animation: 3s 1 forwards cubic-bezier(.36,-0.01,.5,1.38) slideDown;animation-delay: 0.17142857142857143s;opacity: 0}svg#freepik_stories-fire-ball.animated #elyj9n3pemp3h {animation: 3s 1 forwards cubic-bezier(.36,-0.01,.5,1.38) slideDown;animation-delay: 0.2571428571428571s;opacity: 0}svg#freepik_stories-fire-ball.animated #elypwamjgk3sd {animation: 3s 1 forwards cubic-bezier(.36,-0.01,.5,1.38) slideDown;animation-delay: 0.34285714285714286s;opacity: 0}svg#freepik_stories-fire-ball.animated #elj0bmzxogz4a {animation: 3s 1 forwards cubic-bezier(.36,-0.01,.5,1.38) slideDown;animation-delay: 0.4285714285714286s;opacity: 0}svg#freepik_stories-fire-ball.animated #elkuuwxigxp7 {animation: 3s 1 forwards cubic-bezier(.36,-0.01,.5,1.38) slideDown;animation-delay: 0.5142857142857142s;opacity: 0}svg#freepik_stories-fire-ball.animated #eliw0qpzpgsea {animation: 3s 1 forwards cubic-bezier(.36,-0.01,.5,1.38) slideDown;animation-delay: 0.6s;opacity: 0}svg#freepik_stories-fire-ball.animated #elld96cgw9jeh {animation: 3s 1 forwards cubic-bezier(.36,-0.01,.5,1.38) slideDown;animation-delay: 0.6857142857142857s;opacity: 0}svg#freepik_stories-fire-ball.animated #el2ybqtnjbfij {animation: 3s 1 forwards cubic-bezier(.36,-0.01,.5,1.38) slideDown;animation-delay: 0.7714285714285715s;opacity: 0}svg#freepik_stories-fire-ball.animated #elcxxsnekutsl {animation: 3s 1 forwards cubic-bezier(.36,-0.01,.5,1.38) slideDown;animation-delay: 0.8571428571428572s;opacity: 0}svg#freepik_stories-fire-ball.animated #el19w1j1g3bfl {animation: 3s 1 forwards cubic-bezier(.36,-0.01,.5,1.38) slideDown;animation-delay: 0.9428571428571428s;opacity: 0}svg#freepik_stories-fire-ball.animated #elu0zg7foxi2 {animation: 3s 1 forwards cubic-bezier(.36,-0.01,.5,1.38) slideDown;animation-delay: 1.0285714285714285s;opacity: 0}svg#freepik_stories-fire-ball.animated #elaedbcdj4sz5 {animation: 3s 1 forwards cubic-bezier(.36,-0.01,.5,1.38) slideDown;animation-delay: 1.1142857142857143s;opacity: 0}svg#freepik_stories-fire-ball.animated #elajlqg0yrla {animation: 3s 1 forwards cubic-bezier(.36,-0.01,.5,1.38) slideDown;animation-delay: 1.2s;opacity: 0}svg#freepik_stories-fire-ball.animated #el67a3m1k7jhf {animation: 3s 1 forwards cubic-bezier(.36,-0.01,.5,1.38) slideDown;animation-delay: 1.2857142857142858s;opacity: 0}svg#freepik_stories-fire-ball.animated #el18zw26mzlcn {animation: 3s 1 forwards cubic-bezier(.36,-0.01,.5,1.38) slideDown;animation-delay: 1.3714285714285714s;opacity: 0}svg#freepik_stories-fire-ball.animated #el159opx9mw6h {animation: 3s 1 forwards cubic-bezier(.36,-0.01,.5,1.38) slideDown;animation-delay: 1.457142857142857s;opacity: 0}svg#freepik_stories-fire-ball.animated #elgzj5l5johpm {animation: 3s 1 forwards cubic-bezier(.36,-0.01,.5,1.38) slideDown;animation-delay: 1.542857142857143s;opacity: 0}svg#freepik_stories-fire-ball.animated #elrsa8op2i7n {animation: 3s 1 forwards cubic-bezier(.36,-0.01,.5,1.38) slideDown;animation-delay: 1.6285714285714286s;opacity: 0}svg#freepik_stories-fire-ball.animated #eluirul4pe7e {animation: 3s 1 forwards cubic-bezier(.36,-0.01,.5,1.38) slideDown;animation-delay: 1.7142857142857144s;opacity: 0}svg#freepik_stories-fire-ball.animated #ell24dvincm8 {animation: 3s 1 forwards cubic-bezier(.36,-0.01,.5,1.38) slideDown;animation-delay: 1.8s;opacity: 0}svg#freepik_stories-fire-ball.animated #elcyi342hfst {animation: 3s 1 forwards cubic-bezier(.36,-0.01,.5,1.38) slideDown;animation-delay: 1.8857142857142857s;opacity: 0}svg#freepik_stories-fire-ball.animated #elpxtvhsoaoqd {animation: 3s 1 forwards cubic-bezier(.36,-0.01,.5,1.38) slideDown;animation-delay: 1.9714285714285715s;opacity: 0}svg#freepik_stories-fire-ball.animated #elev68zm54fc {animation: 3s 1 forwards cubic-bezier(.36,-0.01,.5,1.38) slideDown;animation-delay: 2.057142857142857s;opacity: 0}svg#freepik_stories-fire-ball.animated #elyo9vgveqop {animation: 3s 1 forwards cubic-bezier(.36,-0.01,.5,1.38) slideDown;animation-delay: 2.142857142857143s;opacity: 0}svg#freepik_stories-fire-ball.animated #el71vi8cb2um6 {animation: 3s 1 forwards cubic-bezier(.36,-0.01,.5,1.38) slideDown;animation-delay: 2.2285714285714286s;opacity: 0}svg#freepik_stories-fire-ball.animated #elkku05y2ozb {animation: 3s 1 forwards cubic-bezier(.36,-0.01,.5,1.38) slideDown;animation-delay: 2.3142857142857145s;opacity: 0}svg#freepik_stories-fire-ball.animated #elforjw99rm5o {animation: 3s 1 forwards cubic-bezier(.36,-0.01,.5,1.38) slideDown;animation-delay: 2.4s;opacity: 0}svg#freepik_stories-fire-ball.animated #elm9p2jg15kd {animation: 3s 1 forwards cubic-bezier(.36,-0.01,.5,1.38) slideDown;animation-delay: 2.4857142857142858s;opacity: 0}svg#freepik_stories-fire-ball.animated #elwmoup56opr {animation: 3s 1 forwards cubic-bezier(.36,-0.01,.5,1.38) slideDown;animation-delay: 2.5714285714285716s;opacity: 0}svg#freepik_stories-fire-ball.animated #elcuuqsvmmev5 {animation: 3s 1 forwards cubic-bezier(.36,-0.01,.5,1.38) slideDown;animation-delay: 2.657142857142857s;opacity: 0}svg#freepik_stories-fire-ball.animated #el3jx1bapixuv {animation: 3s 1 forwards cubic-bezier(.36,-0.01,.5,1.38) slideDown;animation-delay: 2.742857142857143s;opacity: 0}svg#freepik_stories-fire-ball.animated #el7cd1puy00zh {animation: 3s 1 forwards cubic-bezier(.36,-0.01,.5,1.38) slideDown;animation-delay: 2.8285714285714287s;opacity: 0}svg#freepik_stories-fire-ball.animated #ely2pgoqpnj6o {animation: 3s 1 forwards cubic-bezier(.36,-0.01,.5,1.38) slideDown;animation-delay: 2.914285714285714s;opacity: 0}svg#freepik_stories-fire-ball.animated #freepik--fire-ball-1--inject-12 {animation: 3s 1 forwards cubic-bezier(.36,-0.01,.5,1.38) slideDown,3s Infinite  linear floating;animation-delay: 0s,3s;}            @keyframes slideDown {                0% {                    opacity: 0;                    transform: translateY(-30px);                }                100% {                    opacity: 1;                    transform: translateY(0);                }            }                    @keyframes floating {                0% {                    opacity: 1;                    transform: translateY(0px);                }                50% {                    transform: translateY(-10px);                }                100% {                    opacity: 1;                    transform: translateY(0px);                }            }        </style><g id="freepik--background-simple--inject-12" class="animable" style="transform-origin: 252.265px 269.617px;"><path d="M475.12,378.09s45.64-112.44,4.7-222.28S344.51,74.15,275.72,69,166,36.82,94.8,75.3,3.21,160.16,8.43,223.87,31.41,345.76,54,399.48s50.78,90.67,107.69,84S234,456.19,269.29,466.28,433.26,470.62,475.12,378.09Z" style="fill: rgb(0, 255, 136); transform-origin: 252.265px 269.617px;" id="eldjgtrmm5gql" class="animable"></path><g id="elyhj4h2t14y"><path d="M475.12,378.09s45.64-112.44,4.7-222.28S344.51,74.15,275.72,69,166,36.82,94.8,75.3,3.21,160.16,8.43,223.87,31.41,345.76,54,399.48s50.78,90.67,107.69,84S234,456.19,269.29,466.28,433.26,470.62,475.12,378.09Z" style="fill: rgb(255, 255, 255); opacity: 0.7; transform-origin: 252.265px 269.617px;" class="animable"></path></g></g><g id="freepik--Lines--inject-12" class="animable" style="transform-origin: 261.748px 230.415px;"><path d="M188.87,165.74a.53.53,0,0,1-.39-.18.51.51,0,0,1,.07-.71L324.67,51.56a.51.51,0,0,1,.71.06.52.52,0,0,1-.07.71L189.19,165.62A.51.51,0,0,1,188.87,165.74Z" style="fill: rgb(38, 50, 56); transform-origin: 256.928px 108.592px;" id="elwnih6fy1xm" class="animable"></path><path d="M242.13,131.92a.53.53,0,0,1-.38-.18.51.51,0,0,1,.06-.71l94.51-78.65a.49.49,0,0,1,.7.06.51.51,0,0,1-.06.71L242.45,131.8A.47.47,0,0,1,242.13,131.92Z" style="fill: rgb(38, 50, 56); transform-origin: 289.385px 92.0902px;" id="elmb4z9triup" class="animable"></path><path d="M342.25,48.59a.53.53,0,0,1-.38-.18.51.51,0,0,1,.06-.71l36-30a.49.49,0,0,1,.7.06.51.51,0,0,1-.06.71l-36,30A.47.47,0,0,1,342.25,48.59Z" style="fill: rgb(38, 50, 56); transform-origin: 360.25px 33.0852px;" id="elraj8jf2kkfl" class="animable"></path><path d="M187,377.3a.5.5,0,0,1-.32-.88l136.12-113.3a.52.52,0,0,1,.71.07.49.49,0,0,1-.07.7L187.28,377.19A.54.54,0,0,1,187,377.3Z" style="fill: rgb(38, 50, 56); transform-origin: 255.065px 320.156px;" id="eli3t5qou1hkb" class="animable"></path><path d="M124.4,443.25a.5.5,0,0,1-.39-.18.49.49,0,0,1,.07-.7l40-33.3a.5.5,0,0,1,.7.07.49.49,0,0,1-.06.7l-40,33.3A.51.51,0,0,1,124.4,443.25Z" style="fill: rgb(38, 50, 56); transform-origin: 144.397px 426.104px;" id="elb268fi9eua6" class="animable"></path><path d="M171.44,404.1a.51.51,0,0,1-.38-.18.51.51,0,0,1,.06-.71l89.08-74.14a.5.5,0,0,1,.64.77L171.76,404A.49.49,0,0,1,171.44,404.1Z" style="fill: rgb(38, 50, 56); transform-origin: 215.982px 366.527px;" id="el0p7v0qugrss" class="animable"></path><path d="M312.93,390.93a.49.49,0,0,1-.38-.18.51.51,0,0,1,.06-.71L430,292.31a.5.5,0,0,1,.64.77L313.25,390.81A.47.47,0,0,1,312.93,390.93Z" style="fill: rgb(38, 50, 56); transform-origin: 371.627px 341.562px;" id="els6us56ssqb" class="animable"></path><path d="M439.33,285.73a.49.49,0,0,1-.38-.18.51.51,0,0,1,.06-.71l9.72-8.09a.5.5,0,1,1,.65.77l-9.73,8.09A.49.49,0,0,1,439.33,285.73Z" style="fill: rgb(38, 50, 56); transform-origin: 444.196px 281.181px;" id="el8l41ts3b8w4" class="animable"></path><path d="M300.25,423.9a.48.48,0,0,1-.38-.18.49.49,0,0,1,.06-.7l61.81-51.45a.51.51,0,0,1,.71.06.5.5,0,0,1-.07.71l-61.81,51.45A.48.48,0,0,1,300.25,423.9Z" style="fill: rgb(38, 50, 56); transform-origin: 331.158px 397.677px;" id="elpr4jux3m2j" class="animable"></path><path d="M365.75,369.38a.52.52,0,0,1-.38-.17.51.51,0,0,1,.06-.71l8-6.65a.5.5,0,1,1,.64.77l-8,6.65A.46.46,0,0,1,365.75,369.38Z" style="fill: rgb(38, 50, 56); transform-origin: 369.752px 365.557px;" id="elp9pas78z34" class="animable"></path><path d="M401.71,202.39a.53.53,0,0,1-.39-.18.52.52,0,0,1,.07-.71l73.49-61.17a.52.52,0,0,1,.71.07.5.5,0,0,1-.07.7L402,202.27A.51.51,0,0,1,401.71,202.39Z" style="fill: rgb(38, 50, 56); transform-origin: 438.456px 171.306px;" id="ela4lh012ghav" class="animable"></path><path d="M397.48,96.7a.5.5,0,0,1-.32-.88L457.07,46a.5.5,0,0,1,.7.07.49.49,0,0,1-.06.7L397.8,96.58A.49.49,0,0,1,397.48,96.7Z" style="fill: rgb(38, 50, 56); transform-origin: 427.437px 71.2943px;" id="el5e9v5dc5z0t" class="animable"></path><path d="M463.43,41.81a.5.5,0,0,1-.32-.88l7.54-6.28a.5.5,0,0,1,.65.77l-7.55,6.28A.56.56,0,0,1,463.43,41.81Z" style="fill: rgb(38, 50, 56); transform-origin: 467.207px 38.1706px;" id="elht5nlzdy2on" class="animable"></path><path d="M318,164.34a.5.5,0,0,1-.39-.18.51.51,0,0,1,.06-.71l73.5-61.16a.5.5,0,1,1,.64.76l-73.49,61.17A.51.51,0,0,1,318,164.34Z" style="fill: rgb(38, 50, 56); transform-origin: 354.763px 133.237px;" id="elkw82i94g12" class="animable"></path><path d="M316.31,206.61a.5.5,0,0,1-.32-.88L379.3,153a.51.51,0,0,1,.71.06.52.52,0,0,1-.07.71L316.63,206.5A.46.46,0,0,1,316.31,206.61Z" style="fill: rgb(38, 50, 56); transform-origin: 347.967px 179.747px;" id="elf82ruev8k9d" class="animable"></path><path d="M384.32,150a.5.5,0,0,1-.39-.18.5.5,0,0,1,.07-.7l5.49-4.57a.49.49,0,0,1,.7.06.51.51,0,0,1-.06.71l-5.49,4.57A.5.5,0,0,1,384.32,150Z" style="fill: rgb(38, 50, 56); transform-origin: 387.062px 147.215px;" id="elhd3v1frplrp" class="animable"></path><path d="M48.3,240.43a.5.5,0,0,1-.39-.18.49.49,0,0,1,.07-.7l61.19-50.93a.49.49,0,0,1,.7.06.51.51,0,0,1-.06.71l-61.2,50.93A.51.51,0,0,1,48.3,240.43Z" style="fill: rgb(38, 50, 56); transform-origin: 78.8904px 214.465px;" id="el21enbk1mt6u" class="animable"></path><path d="M114.1,185.66a.51.51,0,0,1-.39-.18.5.5,0,0,1,.07-.7l7.69-6.4a.49.49,0,0,1,.7.06.51.51,0,0,1-.06.71l-7.69,6.4A.48.48,0,0,1,114.1,185.66Z" style="fill: rgb(38, 50, 56); transform-origin: 117.942px 181.96px;" id="elerc9aqh8ag8" class="animable"></path><path d="M83,200.69a.48.48,0,0,1-.38-.18.49.49,0,0,1,.06-.7l73.49-61.17a.5.5,0,1,1,.64.77L83.28,200.58A.48.48,0,0,1,83,200.69Z" style="fill: rgb(38, 50, 56); transform-origin: 119.745px 169.607px;" id="elkhyiadvo9w" class="animable"></path></g><g id="freepik--fire-ball-3--inject-12" class="animable animator-active" style="transform-origin: 237.815px 426.021px;"><path d="M271.47,378.83c-5.5,3.78-9.28,11-14.33,25.17-3,8.4-7,8.46-10.41,5.07s4.76-14.1,4.76-14.1-7.34,1.69-12.42,6.77-1.69,9-2.82,15.81-12.35,8.26-23.15,10.16-22.28,6.37-27,17.22c-5.78,13.35.6,27.09,14.3,31.84,8.46,2.92,23.21,1.72,28.49-6.72,2.82-4.52-.49-9,4-13.55S243,459.32,248.67,452s13-18.06,13-18.06a59.38,59.38,0,0,1-15.24,8.46c-9,3.39-10.73-2.25-7.9-6.2s11-3,19.75-9c12.87-8.79,8.89-23.49,11.15-34.22s22.16-18.84,22.16-18.84A28.79,28.79,0,0,0,271.47,378.83Z" style="fill: rgb(0, 255, 136); transform-origin: 237.78px 426.036px;" id="eltk3z2nvhbv" class="animable"></path><path d="M210,479.21a30.9,30.9,0,0,1-9.85-1.5A25.09,25.09,0,0,1,185,464.24a24.43,24.43,0,0,1,.25-19.71c4-9.28,13.35-15.28,27.73-17.81l2.11-.36c9.48-1.65,19.28-3.34,20.22-9a23.66,23.66,0,0,0,.07-6.1c-.29-3.42-.56-6.65,3-10.25a29.75,29.75,0,0,1,12.91-7,1,1,0,0,1,1,1.58c-3.17,4.17-6.76,10.89-4.86,12.8,1,1,2.48,2.09,4,1.74,1.76-.4,3.41-2.63,4.77-6.45,5.43-15.2,9.28-21.91,14.71-25.65h0a29.52,29.52,0,0,1,20.86-4.91,1,1,0,0,1,.81.88,1,1,0,0,1-.62,1c-.2.08-19.44,8.05-21.56,18.13a60.33,60.33,0,0,0-.91,9.31c-.41,8.84-.89,18.86-10.65,25.53a41.46,41.46,0,0,1-12.66,5.5c-3.17.92-5.67,1.64-6.85,3.29s-1.4,3.52-.56,4.6c1.07,1.39,3.73,1.43,7.3.09a59.13,59.13,0,0,0,15-8.31,1,1,0,0,1,1.46,1.34c-.08.11-7.42,10.83-13,18.11-3.5,4.55-7.21,4-10.19,3.55-2.28-.34-4.08-.61-5.69,1.06-2.21,2.26-2.26,4.41-2.32,6.9a11.88,11.88,0,0,1-1.5,6.48C225.86,476.8,217.55,479.21,210,479.21Zm39-82.4a26.31,26.31,0,0,0-9.2,5.64c-2.94,2.94-2.74,5.34-2.46,8.66a25,25,0,0,1-.09,6.6c-1.17,7-11.21,8.77-21.85,10.62l-2.1.36c-13.68,2.41-22.51,8-26.24,16.64a22.42,22.42,0,0,0-.26,18.11,23.11,23.11,0,0,0,14,12.38c8,2.78,22.3,1.72,27.31-6.3a10.1,10.1,0,0,0,1.2-5.47c.06-2.54.13-5.42,2.88-8.25,2.34-2.4,5-2,7.43-1.64,2.84.42,5.53.82,8.31-2.79,3.26-4.24,7.12-9.67,9.78-13.45a62.69,62.69,0,0,1-10.9,5.4c-6.1,2.29-8.63.52-9.59-.74-1.38-1.8-1.17-4.61.52-7,1.58-2.21,4.38-3,7.92-4a39.62,39.62,0,0,0,12.09-5.23c8.94-6.11,9.37-15.2,9.78-24a62.71,62.71,0,0,1,.95-9.62c1.75-8.31,13.14-14.94,19.13-17.9A28.07,28.07,0,0,0,272,379.66l-.57-.83.57.83c-5.05,3.46-8.7,9.92-14,24.67-1.63,4.57-3.72,7.17-6.22,7.73-1.9.43-3.92-.36-5.84-2.28C243.13,406.89,246.63,400.42,249,396.81Z" style="fill: rgb(38, 50, 56); transform-origin: 237.815px 426.021px;" id="el76rxqy1xbb7" class="animable"></path><g id="elnv36lzge0s"><path d="M196.36,439.52s-8.39,6.58-6.93,17.53,7.3,17.16,20.08,17.16,16.06-8.4,16.06-13.87,2.56-9.13,4.75-9.86a21.33,21.33,0,0,1,5.48-.73s-6.58-2.56-7.67-7.67,4.38-6.94,8-9.86,5.11-9.49,5.11-9.49-3.28,4-10.59,5.84S205.13,430.76,196.36,439.52Z" style="fill: rgb(255, 255, 255); opacity: 0.59; transform-origin: 215.25px 448.47px;" class="animable"></path></g><path d="M192.71,467.64s-8.39-11,.73-21.54S211,441.35,215,441s8.77-3.28,8.77-3.28-6.57,6.57-6.57,10.59,6.93,2.55,6.93,2.55-1.46,4.38-4.74,12.05-10.59,10.59-17.16,10.22A12.06,12.06,0,0,1,192.71,467.64Z" style="fill: rgb(255, 255, 255); transform-origin: 206.659px 455.44px;" id="elf85fn2dc3n" class="animable"></path><path d="M201.77,458.73a2.29,2.29,0,1,1-2-2.53A2.29,2.29,0,0,1,201.77,458.73Z" style="fill: rgb(0, 255, 136); transform-origin: 199.494px 458.473px;" id="elx62f8knoda" class="animable"></path><path d="M204.18,453.75a1.28,1.28,0,1,1-1.13-1.42A1.29,1.29,0,0,1,204.18,453.75Z" style="fill: rgb(0, 255, 136); transform-origin: 202.908px 453.602px;" id="el97oll3326yj" class="animable"></path><path d="M206,459.43a1.05,1.05,0,0,1-2.09-.23,1.06,1.06,0,0,1,1.17-.93A1.05,1.05,0,0,1,206,459.43Z" style="fill: rgb(0, 255, 136); transform-origin: 204.955px 459.314px;" id="el878mvffywl" class="animable"></path><path d="M197,466.4a1.83,1.83,0,1,1-1.61-2A1.82,1.82,0,0,1,197,466.4Z" style="fill: rgb(0, 255, 136); transform-origin: 195.18px 466.218px;" id="ela7gorsgj73w" class="animable"></path><path d="M202.06,466a.73.73,0,1,1-1.46-.16.73.73,0,0,1,.81-.65A.74.74,0,0,1,202.06,466Z" style="fill: rgb(0, 255, 136); transform-origin: 201.33px 465.92px;" id="el1rejkt60751" class="animable"></path><path d="M194.76,458.86a1.93,1.93,0,1,1-1.7-2.13A1.93,1.93,0,0,1,194.76,458.86Z" style="fill: rgb(0, 255, 136); transform-origin: 192.842px 458.648px;" id="elnvx4yeylnf" class="animable"></path><path d="M196.42,453.93a1.25,1.25,0,1,1-2.49-.28,1.24,1.24,0,0,1,1.38-1.1A1.26,1.26,0,0,1,196.42,453.93Z" style="fill: rgb(0, 255, 136); transform-origin: 195.174px 453.792px;" id="el9wtxkgasqkj" class="animable"></path><path d="M191.35,451.47a.48.48,0,0,1-.51.41.46.46,0,0,1-.4-.51.45.45,0,0,1,.5-.4A.45.45,0,0,1,191.35,451.47Z" style="fill: rgb(0, 255, 136); transform-origin: 190.895px 451.424px;" id="eldy46gtggrx" class="animable"></path><path d="M201.78,470.16a1.37,1.37,0,0,1-2.73-.31,1.36,1.36,0,0,1,1.52-1.21A1.37,1.37,0,0,1,201.78,470.16Z" style="fill: rgb(0, 255, 136); transform-origin: 200.415px 470.003px;" id="elsq30j50xqu" class="animable"></path><path d="M210.51,466.25a2.38,2.38,0,1,1-2.1-2.63A2.37,2.37,0,0,1,210.51,466.25Z" style="fill: rgb(0, 255, 136); transform-origin: 208.145px 465.985px;" id="elfwi0m3rglrg" class="animable"></path><path d="M206.92,471.93a.91.91,0,0,1-1,.81.92.92,0,1,1,.21-1.82A.91.91,0,0,1,206.92,471.93Z" style="fill: rgb(0, 255, 136); transform-origin: 205.973px 471.823px;" id="el6o0zkhnnxae" class="animable"></path><path d="M217.17,466.08a.73.73,0,1,1-.65-.81A.74.74,0,0,1,217.17,466.08Z" style="fill: rgb(0, 255, 136); transform-origin: 216.444px 465.996px;" id="elfesolp57vwf" class="animable"></path><path d="M215.27,461.63a.55.55,0,0,1-1.09-.12.55.55,0,1,1,1.09.12Z" style="fill: rgb(0, 255, 136); transform-origin: 214.73px 461.527px;" id="el4xhi42m8sx6" class="animable"></path><path d="M214.32,470.09a1.37,1.37,0,1,1-1.21-1.52A1.39,1.39,0,0,1,214.32,470.09Z" style="fill: rgb(0, 255, 136); transform-origin: 212.958px 469.932px;" id="el5gslclmof3m" class="animable"></path><path d="M210.69,453.19a1.28,1.28,0,1,1-1.13-1.42A1.28,1.28,0,0,1,210.69,453.19Z" style="fill: rgb(0, 255, 136); transform-origin: 209.419px 453.042px;" id="elkl2kcja8ovs" class="animable"></path><path d="M212.39,447.94a.64.64,0,1,1-.57-.71A.65.65,0,0,1,212.39,447.94Z" style="fill: rgb(0, 255, 136); transform-origin: 211.754px 447.867px;" id="elcm8x6721p0p" class="animable"></path><path d="M207.59,449.61a.64.64,0,1,1-.56-.7A.63.63,0,0,1,207.59,449.61Z" style="fill: rgb(0, 255, 136); transform-origin: 206.954px 449.545px;" id="el5gorhmabqw" class="animable"></path><path d="M206.06,440.32a.73.73,0,1,1-.65-.81A.74.74,0,0,1,206.06,440.32Z" style="fill: rgb(0, 255, 136); transform-origin: 205.334px 440.236px;" id="elor9njy1vk" class="animable"></path><path d="M222.83,463.22a1.28,1.28,0,1,1-1.13-1.42A1.28,1.28,0,0,1,222.83,463.22Z" style="fill: rgb(0, 255, 136); transform-origin: 221.559px 463.072px;" id="elvve82k0fbee" class="animable"></path><path d="M220.69,467.49a.64.64,0,1,1-1.27-.14.65.65,0,0,1,.71-.57A.64.64,0,0,1,220.69,467.49Z" style="fill: rgb(0, 255, 136); transform-origin: 220.053px 467.437px;" id="el5xyau2mkbt7" class="animable"></path><path d="M218.17,471.91a1.28,1.28,0,1,1-1.13-1.42A1.28,1.28,0,0,1,218.17,471.91Z" style="fill: rgb(0, 255, 136); transform-origin: 216.899px 471.762px;" id="el4tq4iu1d5pk" class="animable"></path><path d="M210.38,474a1.1,1.1,0,1,1-1-1.22A1.1,1.1,0,0,1,210.38,474Z" style="fill: rgb(0, 255, 136); transform-origin: 209.287px 473.876px;" id="elk90uyc0qr9" class="animable"></path><path d="M217.26,447.2a.64.64,0,1,1-.56-.71A.64.64,0,0,1,217.26,447.2Z" style="fill: rgb(0, 255, 136); transform-origin: 216.624px 447.126px;" id="elyhzfhyqo0ld" class="animable"></path><path d="M224.21,457.57a.64.64,0,0,1-.71.56.65.65,0,0,1-.57-.71.64.64,0,0,1,1.28.15Z" style="fill: rgb(0, 255, 136); transform-origin: 223.571px 457.493px;" id="elyvbing6fzhh" class="animable"></path><path d="M212,461.44a.74.74,0,0,1-.81.65.73.73,0,0,1-.65-.81.73.73,0,0,1,1.46.16Z" style="fill: rgb(0, 255, 136); transform-origin: 211.27px 461.36px;" id="elgnhhryt1ubr" class="animable"></path><path d="M194,444.4a.83.83,0,1,1-.73-.91A.82.82,0,0,1,194,444.4Z" style="fill: rgb(0, 255, 136); transform-origin: 193.175px 444.314px;" id="el3mv8etrd9as" class="animable"></path></g><g id="freepik--fire-ball-2--inject-12" class="animable" style="transform-origin: 366.888px 259.414px;"><path d="M464.7,149.54c-13.24-.52-20.39,7.81-18,14.79s.61,14.73-11,16.45-21.08-1.61-30.2,1.78-12.45,12.91-14.65,23.92-12.17,15.62-16.65,14.33,3.22-13.54,1.08-12.5-13.5,6.1-16.92,16.28-1.34,14.46-13.92,18.7-22.7,2.47-35.69,7.67c-14.8,5.93-23.87,28-23.87,28l.55.73a51.84,51.84,0,0,0,63.34,81.53c7.15,1.23,17.31.83,20.76-6.55,3.8-8.12,12.65-9.55,24.08-19.94a33.46,33.46,0,0,0,10.74-24.47c-10.33,7.22-26.76.93-22.31-7.1s23.13,1.22,36.79-10.85,20.21-35.13,20.21-35.13-2.22,6.35-11.42,15.05-19,7.34-19,7.34,17.58-11.53,22.65-28.8-3.56-31.78-1.45-42.14,20.3-7.16,26.42-17.62,3.57-20.81,1.3-28.45S464.7,149.54,464.7,149.54Z" style="fill: rgb(0, 255, 136); transform-origin: 366.858px 259.447px;" id="eli5oaojeql4" class="animable"></path><path d="M320.9,370.31a53.68,53.68,0,0,1-7.26-.5,52.84,52.84,0,0,1-29.53-90.27h0a1,1,0,0,1-.13-1c.38-.91,9.4-22.49,24.42-28.51,7.09-2.83,13.41-3.64,19.51-4.42a80.79,80.79,0,0,0,16.23-3.27c9.36-3.16,10.12-6.18,11.63-12.2.43-1.71.92-3.65,1.67-5.87,1.56-4.65,5.8-11.32,17.15-16.73l.28-.13a1.2,1.2,0,0,1,1.43.14c.75.69.34,1.72-.63,4.22-.9,2.33-2.41,6.22-1.7,7.65a.8.8,0,0,0,.53.43c1.84.52,4.72-.16,7.34-1.76a17.55,17.55,0,0,0,8.05-11.8c2.13-10.66,5.45-21,15.28-24.67,5.35-2,10.8-1.74,16.57-1.49a70.58,70.58,0,0,0,13.84-.34c4.72-.7,8-2.46,9.67-5.24,1.59-2.59,1.75-6.1.47-9.9a10.16,10.16,0,0,1,1.74-9.39c3.37-4.5,9.83-7,17.29-6.72a1,1,0,0,1,.46,1.87c-.09.05-8.69,5.05-6.68,11.83,1.85,6.22,5.28,17.81-1.39,29.23-3.16,5.39-9.3,7.38-14.73,9.12-5.69,1.84-10.61,3.42-11.58,8.2-.83,4.07.09,8.86,1.15,14.41,1.56,8.16,3.33,17.42.28,27.81-4,13.62-15.39,23.58-20.52,27.52A25.18,25.18,0,0,0,427,271.46c8.87-8.39,11.14-14.59,11.16-14.65a1,1,0,0,1,1.9.6c-.27.95-6.78,23.48-20.5,35.61-7.79,6.87-17.06,7.07-24.51,7.24-5.78.12-10.35.22-12.08,3.34-1.41,2.55-.15,4.48,1.15,5.65,3.64,3.28,12.89,4.92,19.72.15a1,1,0,0,1,1-.08,1,1,0,0,1,.56.85,34.17,34.17,0,0,1-11.06,25.26,89,89,0,0,1-13.12,9.69c-5,3.2-8.67,5.52-10.73,9.93-4.23,9.06-17,7.89-21.45,7.18A53,53,0,0,1,320.9,370.31ZM286,278.79l.2.25a1,1,0,0,1-.11,1.34,50.86,50.86,0,0,0,27.79,87.45,51,51,0,0,0,34.33-7.49,1,1,0,0,1,.7-.15c3.67.64,15.93,2.07,19.68-6,2.31-4.94,6.36-7.52,11.48-10.78A87.6,87.6,0,0,0,393,334,32.8,32.8,0,0,0,403.32,312c-7.1,3.89-16.25,2.61-20.59-1.3-2.56-2.31-3.13-5.27-1.56-8.11,2.29-4.12,7.62-4.24,13.79-4.37,7.12-.16,16-.35,23.22-6.74,7.95-7,13.49-18,16.68-25.69a67.58,67.58,0,0,1-6.54,7.09c-9.44,8.93-19.4,7.66-19.82,7.6a1,1,0,0,1-.41-1.83c.17-.11,17.34-11.54,22.24-28.24,2.92-9.93,1.19-18.93-.32-26.88-1.11-5.75-2.06-10.73-1.15-15.18,1.21-5.92,6.9-7.76,12.93-9.7,5.33-1.72,10.84-3.5,13.61-8.23,5.76-9.84,3.64-19.44,1.21-27.65-1.64-5.54,2.09-9.87,4.89-12.21-5.42.42-9.95,2.52-12.45,5.86a8.09,8.09,0,0,0-1.44,7.55c1.47,4.37,1.24,8.48-.66,11.59-2,3.3-5.75,5.38-11.09,6.17a72.32,72.32,0,0,1-14.22.36c-5.56-.25-10.81-.48-15.78,1.37-8.91,3.31-12,13.09-14,23.18a19.53,19.53,0,0,1-9,13.12c-3.13,1.9-6.55,2.65-8.93,2a2.79,2.79,0,0,1-1.77-1.46c-1.1-2.23.41-6.13,1.63-9.26.14-.36.29-.74.42-1.11-9.8,5-13.52,10.85-14.9,15-.72,2.14-1.19,4-1.61,5.72-1.59,6.3-2.54,10.1-12.94,13.6a82.54,82.54,0,0,1-16.62,3.37c-6,.76-12.16,1.55-19,4.29C296.14,257.09,287.52,275.46,286,278.79Z" style="fill: rgb(38, 50, 56); transform-origin: 366.888px 259.414px;" id="eljg75wy60nk" class="animable"></path><g id="elc31adm4imtv"><path d="M350.9,354.7s-11,9.38-37.22,6.43-48.74-32.69-36.62-57.86,22.46-22.69,22.46-22.69.1-18.57,19.54-20.36,35.89,5.36,41.88-6.57S366.13,237,366.13,237s.93,15.37,9.38,11,11.81-10.61,16.26-20.73,19.32-12.42,19.32-12.42-8,11.71-6.44,21.83,5.58,21.2-.26,31.82a50.81,50.81,0,0,1-15.83,16.8s3.93,6.41,10.55,6.49a31.16,31.16,0,0,1-13.91,5.74c-8.09,1.08-18.36,9.87-17.14,16.65s9.38,11,8.87,15.59S373.26,350.58,350.9,354.7Z" style="fill: rgb(255, 255, 255); opacity: 0.59; transform-origin: 342.39px 288.277px;" class="animable"></path></g><path d="M377.65,276.1c-5.91,11.28-19,9.8-13.26,5.81s7.24-17.11,7.24-17.11-10.21,8.15-20.69,7-17.91-6-23.95-5.35-5,3.41-8.76,12.95S302.8,281,291.71,297s-11.56,37.85,9.46,51.49,38.59,5,38.59,5c8.89-2.32,22.23-14.75,23.48-25.89s-8.94-14.94-4.77-22.44,20-12.35,24.71-25.08a106.72,106.72,0,0,0,5.65-26.57S383.57,264.82,377.65,276.1Z" style="fill: rgb(255, 255, 255); transform-origin: 336.494px 304.849px;" id="elerc8tgdtgc" class="animable"></path><path d="M350,257.19c3.21-1.24,5.3-3.54,4.68-5.14s-3.72-1.9-6.92-.66-5.29,3.54-4.67,5.14S346.84,258.42,350,257.19Z" style="fill: rgb(255, 255, 255); transform-origin: 348.885px 254.288px;" id="elf108o8r6k9d" class="animable"></path><path d="M395.18,239.69c-2.36,2.48-3.28,5.46-2,6.64s4.17.13,6.53-2.36,3.28-5.45,2-6.64S397.55,237.2,395.18,239.69Z" style="fill: rgb(255, 255, 255); transform-origin: 397.445px 241.828px;" id="el9la4rg6b50h" class="animable"></path><path d="M402.24,264.12c-1.86,1.94-2.58,4.28-1.6,5.2s3.27.1,5.12-1.84,2.57-4.28,1.6-5.21S404.09,262.17,402.24,264.12Z" style="fill: rgb(255, 255, 255); transform-origin: 403.997px 265.793px;" id="el427f5hyr07n" class="animable"></path><path d="M378.09,314c-1.84-1.76-5.18-1.24-7.46,1.15s-2.63,5.75-.79,7.5,5.18,1.24,7.46-1.15S379.93,315.79,378.09,314Z" style="fill: rgb(255, 255, 255); transform-origin: 373.965px 318.323px;" id="elhe8ymt0w7nt" class="animable"></path><path d="M420.05,203.16c-1-.93-3.27-.1-5.13,1.85s-2.57,4.27-1.59,5.2,3.26.1,5.12-1.84S421,204.09,420.05,203.16Z" style="fill: rgb(255, 255, 255); transform-origin: 416.682px 206.685px;" id="el198g0aatinf" class="animable"></path><path d="M307.73,324.18a5.29,5.29,0,1,1-4.67-5.85A5.29,5.29,0,0,1,307.73,324.18Z" style="fill: rgb(0, 255, 136); transform-origin: 302.473px 323.587px;" id="el9trkyau8i7b" class="animable"></path><circle cx="310.33" cy="312.34" r="2.96" style="fill: rgb(0, 255, 136); transform-origin: 310.33px 312.34px;" id="elpw42hjupado" class="animable"></circle><path d="M317.53,325.81a2.43,2.43,0,1,1-2.14-2.69A2.43,2.43,0,0,1,317.53,325.81Z" style="fill: rgb(0, 255, 136); transform-origin: 315.116px 325.534px;" id="el79utq261619" class="animable"></path><path d="M296.8,341.89a4.23,4.23,0,1,1-3.73-4.68A4.24,4.24,0,0,1,296.8,341.89Z" style="fill: rgb(0, 255, 136); transform-origin: 292.596px 341.413px;" id="elqvrvnx3e0o" class="animable"></path><path d="M308.38,341.06a1.69,1.69,0,1,1-1.49-1.87A1.7,1.7,0,0,1,308.38,341.06Z" style="fill: rgb(0, 255, 136); transform-origin: 306.7px 340.869px;" id="elkubcryh8cpr" class="animable"></path><path d="M291.52,324.48a4.44,4.44,0,1,1-3.92-4.91A4.45,4.45,0,0,1,291.52,324.48Z" style="fill: rgb(0, 255, 136); transform-origin: 287.107px 323.983px;" id="eloxscn443bhe" class="animable"></path><path d="M295.35,313.11a2.89,2.89,0,1,1-2.55-3.2A2.9,2.9,0,0,1,295.35,313.11Z" style="fill: rgb(0, 255, 136); transform-origin: 292.478px 312.782px;" id="elyjlpkmmif1p" class="animable"></path><path d="M283.65,307.42a1.07,1.07,0,0,1-1.17.94,1.06,1.06,0,1,1,1.17-.94Z" style="fill: rgb(0, 255, 136); transform-origin: 282.596px 307.306px;" id="el2cu9a2a7mjj" class="animable"></path><path d="M307.74,350.57a3.17,3.17,0,1,1-2.8-3.51A3.18,3.18,0,0,1,307.74,350.57Z" style="fill: rgb(0, 255, 136); transform-origin: 304.59px 350.211px;" id="elnsijuop8sv" class="animable"></path><path d="M327.9,341.56a5.49,5.49,0,1,1-4.85-6.08A5.5,5.5,0,0,1,327.9,341.56Z" style="fill: rgb(0, 255, 136); transform-origin: 322.445px 340.937px;" id="elz7vnjq2g3g" class="animable"></path><path d="M319.62,354.67a2.11,2.11,0,1,1-1.87-2.34A2.12,2.12,0,0,1,319.62,354.67Z" style="fill: rgb(0, 255, 136); transform-origin: 317.523px 354.428px;" id="elw18kgifvpe" class="animable"></path><path d="M343.27,341.16a1.69,1.69,0,1,1-1.49-1.87A1.69,1.69,0,0,1,343.27,341.16Z" style="fill: rgb(0, 255, 136); transform-origin: 341.591px 340.969px;" id="elvui82sbovxj" class="animable"></path><path d="M338.89,330.88a1.27,1.27,0,1,1-2.52-.29,1.29,1.29,0,0,1,1.41-1.12A1.27,1.27,0,0,1,338.89,330.88Z" style="fill: rgb(0, 255, 136); transform-origin: 337.626px 330.767px;" id="el57i1ayayy07" class="animable"></path><path d="M336.7,350.42a3.17,3.17,0,1,1-2.8-3.51A3.18,3.18,0,0,1,336.7,350.42Z" style="fill: rgb(0, 255, 136); transform-origin: 333.55px 350.061px;" id="elt59h56ykarh" class="animable"></path><circle cx="325.38" cy="311.05" r="2.96" style="fill: rgb(0, 255, 136); transform-origin: 325.38px 311.05px;" id="el1jwrauagou2j" class="animable"></circle><circle cx="330.76" cy="299.1" r="1.48" style="fill: rgb(0, 255, 136); transform-origin: 330.76px 299.1px;" id="el1h6qb15qslo" class="animable"></circle><path d="M321.16,303.13a1.48,1.48,0,1,1-1.31-1.64A1.48,1.48,0,0,1,321.16,303.13Z" style="fill: rgb(0, 255, 136); transform-origin: 319.69px 302.961px;" id="elzcccm6ahad" class="animable"></path><path d="M317.62,281.66a1.7,1.7,0,1,1-1.5-1.87A1.71,1.71,0,0,1,317.62,281.66Z" style="fill: rgb(0, 255, 136); transform-origin: 315.929px 281.479px;" id="elnu4a07ccakp" class="animable"></path><path d="M356.36,334.54a3,3,0,1,1-2.61-3.27A2.95,2.95,0,0,1,356.36,334.54Z" style="fill: rgb(0, 255, 136); transform-origin: 353.377px 334.246px;" id="eler4q0jgrsi" class="animable"></path><path d="M351.42,344.42a1.48,1.48,0,1,1-1.31-1.64A1.48,1.48,0,0,1,351.42,344.42Z" style="fill: rgb(0, 255, 136); transform-origin: 349.95px 344.251px;" id="elms3pn5xyrbd" class="animable"></path><path d="M345.59,354.61a3,3,0,1,1-2.61-3.27A2.95,2.95,0,0,1,345.59,354.61Z" style="fill: rgb(0, 255, 136); transform-origin: 342.607px 354.316px;" id="el1ubwido8s6b" class="animable"></path><path d="M327.6,359.4a2.54,2.54,0,1,1-2.24-2.81A2.55,2.55,0,0,1,327.6,359.4Z" style="fill: rgb(0, 255, 136); transform-origin: 325.076px 359.114px;" id="elky445jqacw" class="animable"></path><circle cx="342.02" cy="297.39" r="1.48" style="fill: rgb(0, 255, 136); transform-origin: 342.02px 297.39px;" id="ellelj7ft3w8k" class="animable"></circle><path d="M359.53,321.49a1.48,1.48,0,1,1-1.31-1.63A1.48,1.48,0,0,1,359.53,321.49Z" style="fill: rgb(0, 255, 136); transform-origin: 358.059px 321.331px;" id="el74rudqv8ih9" class="animable"></path><path d="M331.28,330.45a1.69,1.69,0,1,1-1.49-1.87A1.7,1.7,0,0,1,331.28,330.45Z" style="fill: rgb(0, 255, 136); transform-origin: 329.6px 330.259px;" id="elvlqhbgmby4b" class="animable"></path><path d="M289.74,291.08a1.9,1.9,0,1,1-1.68-2.1A1.9,1.9,0,0,1,289.74,291.08Z" style="fill: rgb(0, 255, 136); transform-origin: 287.852px 290.869px;" id="elzspwe4szer9" class="animable"></path></g><g id="freepik--fire-ball-1--inject-12" class="animable" style="transform-origin: 186.317px 248.25px;"><path d="M322.39,102c-8,2.88-19.24,13.94-26.51,23.56s-13.09,4.26-13.25,7-.66,11.13-7.11,16.33-15.8,3-14.36-2.52a11.57,11.57,0,0,1,6-7.46l-11.33,2.69c-11.32,2.68-15.38,5.23-28.21,24s-18.36,8.41-30.7,9.36-21.21,9.36-25.17,19.74-10.53,17.8-16.43,13.55,3.18-16,3.18-16-9.82,5.57-17.87,19.05,3.83,20.33-7.72,26.91-41.41,1.47-56.4,9.52c-10.92,5.87-13.9,12.79-14.71,16.12a73.57,73.57,0,1,0,105,100c6.94-1.12,15-3,19.5-8.64,8.44-10.67-.53-19.57,3.92-28.8s10.84-3.83,31.13-16.59,17.31-28.58,17.31-28.58c-9,11.2-24.78,3.57-23.17-4.71s13.58-12.6,30.27-21.11,20.55-17.22,20.55-17.22-27.55,3.41-24.61-8.7,20.1-9.43,36.79-17.94,23.23-34.36,23.23-34.36-11.52,6-19.44,7.79-8.64-5,1.15-19.48,32.14-14.86,32.14-14.86-4.36-1.93-8.18-3.27-6.14-11,.94-25.63c11.27-23.2,32-21.57,32-21.57S330.38,99.1,322.39,102Z" style="fill: rgb(0, 255, 136); transform-origin: 186.219px 248.228px;" id="ely2xq16r0f2" class="animable"></path><path d="M105.78,397.45A74.57,74.57,0,0,1,60.94,263.29c1-3.78,4.33-10.61,15.12-16.41,8.06-4.33,20-4.93,31.49-5.51,10.08-.51,19.59-1,24.88-4,5.54-3.15,5.16-6.13,4.58-10.63-.53-4.13-1.18-9.28,2.78-15.92,8.09-13.56,17.83-19.17,18.24-19.41a1,1,0,0,1,1.24.22,1,1,0,0,1,0,1.26c-.06.08-5.58,7.32-4.9,12a3.65,3.65,0,0,0,1.52,2.57,4.73,4.73,0,0,0,4.36.81c3.65-1.09,7.69-6.42,10.55-13.91,4.52-11.85,14.25-19.47,26-20.38a31.16,31.16,0,0,1,9.8,1.1c6.67,1.54,11.48,2.66,20.15-10,12.93-19,17.27-21.7,28.8-24.44L267,138a1,1,0,0,1,.62,1.89,10.51,10.51,0,0,0-5.45,6.8,2.77,2.77,0,0,0,1.32,3.21c2.48,1.61,7.57,1.41,11.46-1.73,6.1-4.92,6.57-13,6.73-15.61.11-1.93,1.89-1.88,3.07-1.86,2.22.05,5.95.15,10.38-5.72,7.09-9.38,18.55-20.87,27-23.9l.34.94-.34-.94c8.12-2.93,18-1.84,18.42-1.79a1,1,0,0,1,.88,1.09,1,1,0,0,1-1.07.9c-.82-.07-20.18-1.27-31,21-5,10.34-5.15,18-3.6,21.8a4,4,0,0,0,2.09,2.44c3.82,1.34,8.21,3.29,8.25,3.31a1,1,0,0,1,.58,1.11,1,1,0,0,1-1,.8c-.21,0-21.95.53-31.32,14.42-8.47,12.55-7.19,16.38-6.59,17.25.82,1.2,2.84,1,4.4.69,7.69-1.72,19.08-7.64,19.19-7.7a1,1,0,0,1,1.08.1,1,1,0,0,1,.35,1c-.27,1.07-6.85,26.4-23.75,35-6.46,3.3-12.95,4.93-18.68,6.37-9.23,2.33-15.91,4-17.59,10.92a4.48,4.48,0,0,0,.87,4.31c3.93,4.4,17.68,3.77,22.65,3.16a1,1,0,0,1,1,1.4c-.17.37-4.2,9.13-21,17.7-2.87,1.47-5.56,2.79-8.17,4.07-12.25,6-20.34,10-21.57,16.34-.58,3,1.57,6.15,5.35,7.91a13.1,13.1,0,0,0,16.06-4,1,1,0,0,1,1-.35,1,1,0,0,1,.74.79c.13.67,2.87,16.63-17.76,29.6a76.38,76.38,0,0,1-21.18,9.57c-5,1.47-7.45,2.22-9.58,6.62-1.79,3.71-1.23,7.43-.65,11.38.78,5.25,1.67,11.21-3.39,17.6-4.5,5.69-12.09,7.68-19.69,8.94A74.55,74.55,0,0,1,105.78,397.45Zm49.08-201.29a60.15,60.15,0,0,0-13.35,15.69c-3.61,6-3,10.61-2.51,14.64.6,4.72,1.12,8.8-5.58,12.62-5.7,3.24-15.45,3.74-25.77,4.26-11.3.57-23,1.16-30.64,5.27-10.45,5.62-13.39,12.11-14.22,15.48a1,1,0,0,1-.37.56A72.57,72.57,0,1,0,166,363.35a1,1,0,0,1,.67-.43c7.35-1.19,14.71-3,18.87-8.27,4.53-5.71,3.78-10.74,3-16.07-.6-4.07-1.23-8.27.83-12.54,2.51-5.2,5.63-6.13,10.81-7.67A74.32,74.32,0,0,0,220.86,309c15.24-9.58,17-20.7,17-25.35A14.94,14.94,0,0,1,221,286.5c-4.63-2.15-7.23-6.21-6.48-10.1,1.43-7.34,9.87-11.49,22.66-17.76,2.6-1.27,5.28-2.59,8.15-4,11.93-6.08,17.19-12.29,19.13-15.14-5,.42-18,1-22.39-4a6.43,6.43,0,0,1-1.32-6.12c2-8.08,9.88-10.07,19-12.38,5.63-1.41,12-3,18.26-6.21,13.3-6.78,20.09-25.2,22.09-31.54-3.71,1.82-11.6,5.49-17.62,6.83-3.91.87-5.68-.34-6.48-1.51-2.73-4,2.07-12.82,6.58-19.5,7.46-11.06,21.72-14.13,28.79-15-1.34-.55-2.88-1.15-4.34-1.66a5.87,5.87,0,0,1-3.27-3.57c-2.22-5.38-.86-14.15,3.65-23.43,5.6-11.54,13.58-17.09,20.28-19.75a29,29,0,0,0-5,1.29h0c-7.68,2.77-18.92,13.78-26.05,23.23-5.05,6.68-9.59,6.57-12,6.51a8.34,8.34,0,0,0-1,0c-.19,3.06-.77,11.61-7.48,17-4.64,3.75-10.66,3.88-13.8,1.85a4.72,4.72,0,0,1-2.16-5.4,12.46,12.46,0,0,1,2.74-5.17l-6.85,1.62c-11.11,2.63-15,5.13-27.61,23.61C219,180,213.1,178.64,206.22,177.05A29,29,0,0,0,197,176c-11,.84-20.07,8-24.31,19.09-3.17,8.31-7.49,13.82-11.85,15.12a6.78,6.78,0,0,1-6.1-1.11,5.62,5.62,0,0,1-2.33-3.9C152,202.31,153.4,198.85,154.86,196.16Z" style="fill: rgb(38, 50, 56); transform-origin: 186.317px 248.25px;" id="el158k2yjabe9" class="animable"></path><g id="el3dh0jn1m15x"><path d="M244.52,209.6c-7,3-17.87,4.07-13.73-5.4s10.67-6.52,20.14-14.22,6.52-23.69,6.52-23.69a70.26,70.26,0,0,1-6.52,13c-4.74,7.7-9.47,3-18.36,5.92s-12.61,9-20.72,22.15-17.78,9.24-23.11,6.88,17.18-18.37,17.18-18.37-17.77,1.19-27.84,13-6.52,19-14.81,37.91c-5.86,13.39-25,14.66-35.75,14.25a65.5,65.5,0,1,0,39.05,86.18c10.2-1.92,15-6.15,13.28-16.32-1.77-10.66-3-17.77,11.26-23.1a172.33,172.33,0,0,0,24.28-11.25s-7.1-.6-10.07-4.74,5.93-24.29,5.93-24.29L203,280c-4.73,7.11-14.8,11.26-21.91,11.26s-3-4.74,1.78-17.77,11.25-8.89,24.62-17.11,16.84-14.29,16.84-14.29A69.26,69.26,0,0,1,213,249.8c-6.51,3.56-12.43,4.74-16,1.78s3-9.48,15.4-19,18.36-4.74,27.84-12.44,14.81-19,14.81-19A26,26,0,0,1,244.52,209.6Z" style="fill: rgb(255, 255, 255); opacity: 0.59; transform-origin: 149.083px 277.304px;" class="animable"></path></g><path d="M155.15,332.51c3.72-10.29,7.91-4,15.16-13.85a183.55,183.55,0,0,0,13.28-22c-1.74,3.2-7.58,12.31-17.89,13.4-12.53,1.32-13.85,3.3-13.85,3.3a78.08,78.08,0,0,1,6.59-10.55c4-5.28,7.92-4.62,13.85-9.89s4-14.51,3.3-26.38,20.44-31,20.44-31-10.55,4-15.17,9.23A62.63,62.63,0,0,0,167,269.87C163.72,281.74,142,282.4,142,282.4s3.3-2,11.21-5.94,7.25-15.16,7.25-15.16a52.89,52.89,0,0,1-21.76,13.84c-13.84,4.62-20.44-4.61-45.28.13s-51,33.5-35.84,69.9,42.22,37.45,42.22,37.45c41.54.66,47.48-17.8,55.39-26.38S173,333.83,173,333.83a92.45,92.45,0,0,1-11.87,9.89C155.15,347.67,151.42,342.8,155.15,332.51Z" style="fill: rgb(255, 255, 255); transform-origin: 124.564px 309.089px;" id="elyj9n3pemp3h" class="animable"></path><path d="M183.59,296.69c.38-.69.57-1.11.57-1.11S184,296,183.59,296.69Z" style="fill: rgb(255, 255, 255); transform-origin: 183.875px 296.135px;" id="elypwamjgk3sd" class="animable"></path><path d="M151,249.49c5.17-2.69,8.27-7,6.92-9.56s-6.63-2.49-11.8.21-8.26,7-6.91,9.55S145.83,252.18,151,249.49Z" style="fill: rgb(255, 255, 255); transform-origin: 148.565px 244.809px;" id="elj0bmzxogz4a" class="animable"></path><path d="M210.76,197.67c-.79-1.52-3.9-1.47-6.94.12s-4.87,4.11-4.08,5.63,3.91,1.47,6.95-.12S211.56,199.19,210.76,197.67Z" style="fill: rgb(255, 255, 255); transform-origin: 205.252px 200.545px;" id="elkuuwxigxp7" class="animable"></path><path d="M198.55,269.75c-3.05,1.59-4.87,4.11-4.08,5.63s3.91,1.47,6.95-.12,4.87-4.11,4.07-5.63S201.59,268.16,198.55,269.75Z" style="fill: rgb(255, 255, 255); transform-origin: 199.982px 272.505px;" id="eliw0qpzpgsea" class="animable"></path><path d="M187.88,309.67c-3,1.59-4.87,4.11-4.07,5.63s3.9,1.47,6.94-.12,4.87-4.11,4.08-5.63S190.92,308.08,187.88,309.67Z" style="fill: rgb(255, 255, 255); transform-origin: 189.319px 312.425px;" id="elld96cgw9jeh" class="animable"></path><circle cx="78.87" cy="335.99" r="7.4" style="fill: rgb(0, 255, 136); transform-origin: 78.87px 335.99px;" id="el2ybqtnjbfij" class="animable"></circle><path d="M92.19,319.1A4.15,4.15,0,1,1,88.05,315,4.14,4.14,0,0,1,92.19,319.1Z" style="fill: rgb(0, 255, 136); transform-origin: 88.0403px 319.15px;" id="elcxxsnekutsl" class="animable"></path><circle cx="96.77" cy="336.72" r="3.4" style="fill: rgb(0, 255, 136); transform-origin: 96.77px 336.72px;" id="el19w1j1g3bfl" class="animable"></circle><circle cx="67.91" cy="362.34" r="5.92" style="fill: rgb(0, 255, 136); transform-origin: 67.91px 362.34px;" id="elu0zg7foxi2" class="animable"></circle><path d="M89.82,359.38A2.37,2.37,0,1,1,87.45,357,2.37,2.37,0,0,1,89.82,359.38Z" style="fill: rgb(0, 255, 136); transform-origin: 87.45px 359.37px;" id="elaedbcdj4sz5" class="animable"></path><circle cx="57.54" cy="338.95" r="6.22" style="fill: rgb(0, 255, 136); transform-origin: 57.54px 338.95px;" id="elajlqg0yrla" class="animable"></circle><path d="M67.32,322.52a4.06,4.06,0,1,1-4.06-4.06A4.06,4.06,0,0,1,67.32,322.52Z" style="fill: rgb(0, 255, 136); transform-origin: 63.26px 322.52px;" id="el67a3m1k7jhf" class="animable"></path><path d="M50.14,316.44A1.48,1.48,0,1,1,48.66,315,1.48,1.48,0,0,1,50.14,316.44Z" style="fill: rgb(0, 255, 136); transform-origin: 48.6605px 316.48px;" id="el18zw26mzlcn" class="animable"></path><path d="M90.42,372.71A4.45,4.45,0,1,1,86,368.27,4.44,4.44,0,0,1,90.42,372.71Z" style="fill: rgb(0, 255, 136); transform-origin: 85.97px 372.72px;" id="el159opx9mw6h" class="animable"></path><g id="elgzj5l5johpm"><circle cx="109.37" cy="357.01" r="7.7" style="fill: rgb(0, 255, 136); transform-origin: 109.37px 357.01px; transform: rotate(-45deg);" class="animable"></circle></g><path d="M107.59,376.56a3,3,0,1,1-3-3A3,3,0,0,1,107.59,376.56Z" style="fill: rgb(0, 255, 136); transform-origin: 104.59px 376.56px;" id="elrsa8op2i7n" class="animable"></path><path d="M138.39,354.05a2.37,2.37,0,1,1-2.37-2.37A2.37,2.37,0,0,1,138.39,354.05Z" style="fill: rgb(0, 255, 136); transform-origin: 136.02px 354.05px;" id="eluirul4pe7e" class="animable"></path><path d="M130.69,340.43a1.78,1.78,0,1,1-1.77-1.78A1.77,1.77,0,0,1,130.69,340.43Z" style="fill: rgb(0, 255, 136); transform-origin: 128.91px 340.43px;" id="ell24dvincm8" class="animable"></path><path d="M130.69,368a4.44,4.44,0,1,1-4.44-4.44A4.44,4.44,0,0,1,130.69,368Z" style="fill: rgb(0, 255, 136); transform-origin: 126.25px 368px;" id="elcyi342hfst" class="animable"></path><path d="M112.92,315a4.15,4.15,0,1,1-4.14-4.15A4.14,4.14,0,0,1,112.92,315Z" style="fill: rgb(0, 255, 136); transform-origin: 108.77px 315px;" id="elpxtvhsoaoqd" class="animable"></path><circle cx="114.4" cy="297.49" r="2.07" style="fill: rgb(0, 255, 136); transform-origin: 114.4px 297.49px;" id="elev68zm54fc" class="animable"></circle><path d="M101.67,304.59a2.08,2.08,0,1,1-2.07-2.07A2.08,2.08,0,0,1,101.67,304.59Z" style="fill: rgb(0, 255, 136); transform-origin: 99.59px 304.6px;" id="elyo9vgveqop" class="animable"></path><path d="M93.38,275.27A2.37,2.37,0,1,1,91,272.9,2.37,2.37,0,0,1,93.38,275.27Z" style="fill: rgb(0, 255, 136); transform-origin: 91.01px 275.27px;" id="el71vi8cb2um6" class="animable"></path><circle cx="151.42" cy="342.8" r="4.15" style="fill: rgb(0, 255, 136); transform-origin: 151.42px 342.8px;" id="elkku05y2ozb" class="animable"></circle><circle cx="148.17" cy="357.31" r="2.07" style="fill: rgb(0, 255, 136); transform-origin: 148.17px 357.31px;" id="elforjw99rm5o" class="animable"></circle><path d="M143.72,372.41a4.15,4.15,0,1,1-4.14-4.14A4.14,4.14,0,0,1,143.72,372.41Z" style="fill: rgb(0, 255, 136); transform-origin: 139.57px 372.42px;" id="elm9p2jg15kd" class="animable"></path><path d="M119.44,381.89a3.56,3.56,0,1,1-3.55-3.55A3.55,3.55,0,0,1,119.44,381.89Z" style="fill: rgb(0, 255, 136); transform-origin: 115.88px 381.9px;" id="elwmoup56opr" class="animable"></path><path d="M131.88,293.34a2.08,2.08,0,1,1-2.08-2.07A2.08,2.08,0,0,1,131.88,293.34Z" style="fill: rgb(0, 255, 136); transform-origin: 129.8px 293.35px;" id="elcuuqsvmmev5" class="animable"></path><path d="M157.94,324.14a2.08,2.08,0,1,1-2.07-2.07A2.07,2.07,0,0,1,157.94,324.14Z" style="fill: rgb(0, 255, 136); transform-origin: 155.86px 324.15px;" id="el3jx1bapixuv" class="animable"></path><path d="M120,341a2.37,2.37,0,1,1-2.37-2.37A2.37,2.37,0,0,1,120,341Z" style="fill: rgb(0, 255, 136); transform-origin: 117.63px 341px;" id="el7cd1puy00zh" class="animable"></path><circle cx="53.4" cy="292.75" r="2.67" style="fill: rgb(0, 255, 136); transform-origin: 53.4px 292.75px;" id="ely2pgoqpnj6o" class="animable"></circle></g><defs>     <filter id="active" height="200%">         <feMorphology in="SourceAlpha" result="DILATED" operator="dilate" radius="2"></feMorphology>                <feFlood flood-color="#32DFEC" flood-opacity="1" result="PINK"></feFlood>        <feComposite in="PINK" in2="DILATED" operator="in" result="OUTLINE"></feComposite>        <feMerge>            <feMergeNode in="OUTLINE"></feMergeNode>            <feMergeNode in="SourceGraphic"></feMergeNode>        </feMerge>    </filter>    <filter id="hover" height="200%">        <feMorphology in="SourceAlpha" result="DILATED" operator="dilate" radius="2"></feMorphology>                <feFlood flood-color="#ff0000" flood-opacity="0.5" result="PINK"></feFlood>        <feComposite in="PINK" in2="DILATED" operator="in" result="OUTLINE"></feComposite>        <feMerge>            <feMergeNode in="OUTLINE"></feMergeNode>            <feMergeNode in="SourceGraphic"></feMergeNode>        </feMerge>            <feColorMatrix type="matrix" values="0   0   0   0   0                0   1   0   0   0                0   0   0   0   0                0   0   0   1   0 "></feColorMatrix>    </filter></defs></svg>